<svg xmlns="http://www.w3.org/2000/svg" xmlns:xlink="http://www.w3.org/1999/xlink" width="305" zoomAndPan="magnify" viewBox="0 0 228.75 228.749994" height="305" preserveAspectRatio="xMidYMid meet" version="1.0"><defs><clipPath id="c56feb785f"><path d="M 76.09375 61 L 152.59375 61 L 152.59375 167.464844 L 76.09375 167.464844 Z M 76.09375 61 " clip-rule="nonzero"/></clipPath></defs><g clip-path="url(#c56feb785f)"><path fill="#f4f6ff" d="M 150.867188 151.429688 C 149.871094 142.546875 148.628906 131.492188 147.476562 122.773438 C 145.425781 107.253906 144.648438 106.679688 144.082031 106.261719 C 143.730469 106 143.136719 105.5625 133.765625 105.195312 C 133.085938 105.167969 132.378906 105.144531 131.644531 105.121094 C 131.558594 101.453125 131.292969 97.617188 130.257812 94.03125 C 129.515625 91.472656 127.882812 89.230469 125.53125 87.527344 C 125.285156 86.957031 125.023438 86.390625 124.75 85.832031 C 126.257812 84.300781 127.039062 82.515625 127.078125 80.523438 C 127.164062 76.011719 123.449219 72.117188 122.308594 71.03125 C 119.566406 68.421875 116.699219 66.476562 112.710938 64.535156 L 105.746094 61.136719 C 105.503906 61.015625 105.257812 61 105.003906 61.085938 C 104.75 61.171875 104.5625 61.335938 104.445312 61.578125 C 104.328125 61.816406 104.3125 62.066406 104.402344 62.320312 C 104.488281 62.570312 104.652344 62.757812 104.894531 62.871094 L 111.863281 66.269531 C 115.660156 68.121094 118.382812 69.964844 120.972656 72.425781 C 124.101562 75.410156 125.179688 78.546875 125.144531 80.488281 C 125.117188 81.769531 124.664062 82.949219 123.792969 84.007812 C 122.730469 82.109375 121.515625 80.316406 120.144531 78.628906 C 119.976562 78.421875 119.761719 78.304688 119.496094 78.273438 C 119.230469 78.246094 118.992188 78.316406 118.785156 78.484375 C 118.574219 78.652344 118.457031 78.867188 118.429688 79.132812 C 118.402344 79.398438 118.472656 79.636719 118.640625 79.84375 C 120.769531 82.472656 122.5 85.339844 123.820312 88.453125 C 124.253906 89.464844 124.542969 90.308594 124.5625 91.144531 C 124.582031 91.996094 124.269531 92.761719 123.742188 93.144531 C 123.011719 93.675781 121.917969 93.496094 121.15625 93.082031 C 120.1875 92.550781 119.414062 91.617188 118.664062 90.71875 C 118.402344 90.402344 118.070312 90.296875 117.671875 90.402344 C 117.273438 90.507812 117.039062 90.761719 116.964844 91.164062 C 116.910156 91.464844 116.808594 91.75 116.660156 92.015625 C 116.511719 92.28125 116.324219 92.515625 116.09375 92.71875 C 115.867188 92.921875 115.613281 93.078125 115.332031 93.195312 C 115.046875 93.3125 114.753906 93.382812 114.449219 93.398438 C 114.144531 93.417969 113.847656 93.386719 113.550781 93.304688 C 113.257812 93.222656 112.984375 93.09375 112.734375 92.921875 C 112.484375 92.746094 112.269531 92.539062 112.089844 92.292969 C 111.90625 92.046875 111.773438 91.777344 111.683594 91.484375 C 111.617188 91.269531 111.488281 91.097656 111.300781 90.96875 C 111.109375 90.839844 110.902344 90.789062 110.675781 90.804688 C 110.449219 90.824219 110.253906 90.914062 110.089844 91.070312 C 109.925781 91.226562 109.828125 91.417969 109.796875 91.644531 C 109.667969 92.628906 108.503906 93.289062 107.542969 93.269531 C 106.121094 93.238281 104.949219 92.199219 104.378906 91.582031 C 103.882812 91.046875 102.730469 89.351562 102.589844 89.136719 C 102.363281 88.785156 102.125 88.425781 101.882812 88.070312 C 101.613281 87.679688 101.367188 87.316406 101.136719 86.972656 C 99.046875 83.890625 98 82.34375 93.863281 80.65625 C 93.617188 80.554688 93.367188 80.554688 93.121094 80.660156 C 92.875 80.761719 92.703125 80.9375 92.601562 81.183594 C 92.5 81.429688 92.5 81.675781 92.605469 81.921875 C 92.707031 82.167969 92.882812 82.34375 93.128906 82.445312 C 96.722656 83.910156 97.488281 85.039062 99.53125 88.054688 C 99.765625 88.402344 100.015625 88.769531 100.285156 89.164062 C 100.515625 89.496094 100.996094 90.234375 101.007812 90.257812 C 100.644531 90.726562 100.308594 91.21875 100.003906 91.726562 C 97.667969 95.601562 97.03125 99.875 96.894531 105.035156 C 95.917969 105.066406 94.988281 105.097656 94.109375 105.132812 C 84.613281 105.519531 83.960938 106.121094 83.574219 106.484375 C 83.105469 106.917969 82.394531 107.578125 80.78125 121.289062 C 79.859375 129.109375 78.890625 139.054688 78.035156 147.832031 C 77.316406 155.21875 76.636719 162.195312 76.132812 166.359375 C 76.113281 166.496094 76.128906 166.632812 76.167969 166.765625 C 76.210938 166.894531 76.277344 167.015625 76.367188 167.117188 C 76.460938 167.222656 76.570312 167.300781 76.695312 167.359375 C 76.820312 167.414062 76.953125 167.441406 77.09375 167.441406 L 77.097656 167.441406 L 151.601562 167.148438 C 151.738281 167.148438 151.871094 167.121094 152 167.0625 C 152.125 167.003906 152.234375 166.925781 152.324219 166.820312 C 152.417969 166.714844 152.484375 166.597656 152.523438 166.464844 C 152.5625 166.332031 152.574219 166.199219 152.558594 166.0625 C 152.132812 162.71875 151.546875 157.488281 150.867188 151.429688 Z M 101.664062 92.722656 C 101.824219 92.457031 101.992188 92.199219 102.167969 91.945312 C 102.414062 92.273438 102.675781 92.589844 102.957031 92.894531 C 104.300781 94.347656 105.914062 95.167969 107.5 95.203125 C 108.132812 95.214844 108.738281 95.097656 109.320312 94.847656 C 109.898438 94.597656 110.402344 94.238281 110.828125 93.773438 C 111.304688 94.296875 111.867188 94.695312 112.523438 94.96875 C 113.179688 95.238281 113.859375 95.359375 114.566406 95.328125 C 116.054688 95.238281 117.417969 94.378906 118.214844 93.152344 C 118.796875 93.800781 119.46875 94.34375 120.226562 94.777344 C 120.96875 95.1875 121.765625 95.398438 122.617188 95.40625 C 123.449219 95.421875 124.207031 95.1875 124.886719 94.707031 C 125.929688 93.945312 126.535156 92.597656 126.5 91.101562 C 126.5 91.078125 126.496094 91.050781 126.496094 91.027344 C 127.382812 92.074219 128.015625 93.253906 128.394531 94.570312 C 129.195312 97.335938 129.585938 100.425781 129.703125 105.0625 C 124.996094 104.929688 119.472656 104.851562 113.964844 104.835938 C 108.46875 104.824219 103.261719 104.875 98.835938 104.984375 C 99.035156 98.402344 100.113281 95.292969 101.664062 92.722656 Z M 78.183594 165.503906 C 78.667969 161.296875 79.273438 155.101562 79.964844 148.015625 C 80.796875 139.449219 81.746094 129.738281 82.644531 122.019531 C 83.929688 111.007812 84.625 108.480469 84.90625 107.917969 C 85.308594 107.765625 87.09375 107.335938 94.652344 107.046875 C 95.355469 107.019531 96.097656 106.992188 96.867188 106.96875 C 96.851562 109.523438 96.921875 112.390625 97.003906 115.648438 L 97.023438 116.414062 C 97.03125 116.675781 97.128906 116.898438 97.316406 117.078125 C 97.503906 117.261719 97.730469 117.355469 97.992188 117.355469 L 98.015625 117.355469 C 98.285156 117.347656 98.507812 117.246094 98.695312 117.054688 C 98.878906 116.859375 98.964844 116.632812 98.960938 116.363281 L 98.941406 115.601562 C 98.859375 112.328125 98.785156 109.457031 98.804688 106.917969 C 103.234375 106.804688 108.464844 106.753906 113.96875 106.769531 C 119.980469 106.785156 125.320312 106.867188 129.742188 106.996094 C 129.761719 108.777344 129.753906 110.683594 129.746094 112.84375 C 129.742188 113.8125 129.742188 114.824219 129.738281 115.875 C 129.738281 116.140625 129.832031 116.371094 130.023438 116.558594 C 130.210938 116.746094 130.4375 116.839844 130.707031 116.84375 C 130.972656 116.84375 131.203125 116.746094 131.390625 116.558594 C 131.582031 116.371094 131.675781 116.144531 131.675781 115.875 C 131.675781 114.828125 131.679688 113.820312 131.683594 112.847656 C 131.691406 110.714844 131.699219 108.828125 131.679688 107.054688 C 137.878906 107.261719 141.910156 107.550781 142.890625 107.824219 C 143.210938 108.472656 144.027344 111.34375 145.644531 123.675781 C 146.769531 132.261719 147.972656 143.007812 148.941406 151.644531 C 149.550781 157.09375 150.089844 161.871094 150.5 165.222656 Z M 78.183594 165.503906 " fill-opacity="1" fill-rule="nonzero"/></g></svg>